<?xml version="1.0" standalone="no"?>
<!DOCTYPE svg PUBLIC "-//W3C//DTD SVG 20010904//EN"
 "http://www.w3.org/TR/2001/REC-SVG-20010904/DTD/svg10.dtd">
<svg version="1.0" xmlns="http://www.w3.org/2000/svg"
 width="360.000000pt" height="360.000000pt" viewBox="0 0 360.000000 360.000000"
 preserveAspectRatio="xMidYMid meet">
<metadata>
Created by potrace 1.14, written by Peter Selinger 2001-2017
</metadata>
<g transform="translate(0.000000,360.000000) scale(0.100000,-0.100000)"
fill="#000000" stroke="none">
<path d="M1030 3576 c-87 -33 -290 -136 -337 -170 -29 -21 -65 -57 -81 -79
-18 -27 -36 -43 -52 -45 -80 -10 -247 -99 -314 -166 -50 -50 -113 -175 -161
-321 -42 -125 -53 -213 -69 -565 -6 -125 15 -227 61 -294 18 -26 33 -58 33
-69 0 -66 226 -449 263 -446 8 0 8 2 0 6 -7 2 -13 9 -13 14 0 12 56 -16 66
-33 5 -8 2 -9 -9 -5 -33 13 -16 -3 19 -18 53 -22 150 -92 213 -155 54 -53 72
-66 156 -111 37 -20 94 -33 208 -46 50 -5 55 -10 35 -33 -8 -9 -6 -9 7 1 20
16 39 17 150 5 22 -2 60 -9 85 -16 25 -7 59 -14 75 -15 17 -2 44 -6 60 -10
l30 -7 -24 20 c-13 11 -21 24 -17 30 5 8 -12 22 -34 26 -24 6 -300 149 -300
156 0 6 -6 10 -12 10 -7 0 -36 18 -64 39 -29 21 -60 42 -70 45 -11 3 -31 17
-46 31 -15 14 -32 25 -38 25 -15 0 -90 51 -90 61 0 4 -15 15 -34 24 -18 9 -43
25 -54 35 -12 11 -24 20 -27 20 -19 0 -102 46 -129 71 -17 17 -38 37 -47 45
-20 18 -30 62 -19 83 7 15 30 147 51 296 6 39 16 95 24 125 8 30 16 85 20 123
3 37 10 77 15 90 10 25 32 141 29 154 -1 4 0 15 4 23 8 21 21 72 22 90 1 8 3
20 4 27 0 6 8 19 17 27 14 15 14 16 0 16 -9 0 -16 5 -16 11 0 5 4 8 9 5 11 -7
22 20 15 38 -3 8 -1 17 5 20 5 4 13 28 16 54 7 56 32 119 58 147 10 11 25 32
33 48 8 15 19 27 23 27 5 0 8 11 7 24 -2 16 1 23 9 19 7 -2 25 8 39 24 23 24
24 29 11 39 -14 10 -13 13 2 25 15 12 16 12 10 -6 -6 -17 -4 -16 11 4 14 17
21 20 27 12 5 -9 13 -7 30 9 17 16 36 22 67 22 23 -1 48 4 55 10 7 6 13 7 13
2 0 -5 28 -10 61 -11 69 -2 77 -6 60 -27 -10 -12 -8 -13 11 -8 21 5 22 4 9
-12 -18 -22 -7 -32 22 -18 29 14 87 21 93 10 3 -4 -8 -8 -25 -8 -17 0 -42 -11
-59 -25 -17 -14 -34 -25 -40 -25 -5 0 -17 -11 -26 -25 -15 -23 -12 -21 29 9
25 20 60 37 78 40 71 11 127 13 127 5 0 -5 14 -6 30 -2 26 5 29 3 23 -13 -4
-10 -8 -13 -10 -7 -4 12 -76 8 -131 -7 -46 -12 -101 -57 -125 -101 l-18 -34
25 30 c14 17 26 32 26 35 0 3 20 18 45 33 37 24 55 28 107 28 78 -1 138 -11
138 -21 0 -5 -17 -6 -37 -3 -33 4 -67 -1 -132 -18 -8 -2 -35 -24 -61 -49 -49
-47 -81 -121 -79 -179 1 -21 2 -22 6 -6 19 86 35 125 51 125 13 0 14 2 3 9
-16 10 34 52 92 76 61 25 60 18 -5 -49 -54 -57 -63 -70 -65 -108 -1 -24 -3
-47 -4 -53 -1 -5 2 -19 7 -29 5 -13 4 -17 -3 -13 -14 9 -5 -30 14 -59 8 -13
11 -32 7 -48 -3 -15 -2 -26 4 -26 5 0 9 -26 8 -57 0 -36 4 -58 12 -61 7 -2 12
-9 12 -17 0 -7 12 -33 26 -59 26 -47 39 -60 27 -28 -6 15 -5 16 12 2 34 -26
65 -64 88 -103 12 -22 34 -46 49 -55 24 -14 27 -14 43 1 20 21 15 30 -29 51
-23 11 -40 30 -55 61 -11 25 -21 49 -21 55 0 5 -4 10 -10 10 -13 0 -13 -6 0
-31 7 -11 7 -19 1 -19 -18 0 -42 188 -36 284 4 74 24 148 38 139 6 -4 7 -1 3
6 -9 14 12 71 26 71 5 0 7 4 4 9 -4 5 -1 22 5 38 6 15 13 22 16 16 7 -20 23
-15 33 10 7 17 9 18 9 5 1 -21 49 -25 56 -5 3 7 23 11 53 10 26 -1 47 -2 47
-3 0 -1 13 -3 28 -5 21 -3 27 0 25 13 -2 11 3 16 15 14 20 -3 21 6 4 29 -7 9
-25 17 -41 17 -15 0 -32 6 -37 13 -6 10 -9 11 -9 2 0 -7 -7 -13 -15 -13 -8 0
-15 5 -15 10 0 6 -11 8 -24 6 -13 -2 -27 -2 -31 2 -3 3 -18 8 -33 10 -15 2
-29 8 -31 13 -1 6 -12 2 -24 -8 -11 -10 -17 -13 -14 -7 8 15 -15 35 -42 37
-23 1 -25 5 -12 26 6 8 16 11 31 6 13 -4 20 -3 17 2 -3 5 12 8 36 7 58 -2 59
-3 52 -14 -3 -5 8 -2 24 8 29 16 31 16 46 -3 10 -13 14 -15 13 -5 -2 9 3 13
12 11 8 -2 24 -5 35 -6 11 -1 33 -8 49 -14 15 -6 33 -11 40 -10 11 2 23 -2 86
-27 19 -7 67 -18 105 -24 39 -6 97 -23 130 -39 33 -16 69 -32 79 -35 17 -6 17
-4 5 11 -7 10 -24 30 -38 46 -14 15 -20 27 -14 27 15 0 155 -122 148 -129 -6
-5 103 -71 118 -71 4 0 7 6 7 13 0 16 -34 50 -42 42 -3 -3 -11 1 -18 10 -7 8
-18 15 -24 15 -7 0 -35 22 -62 48 -40 39 -48 52 -40 65 14 21 8 25 -52 37 -78
14 -183 65 -176 84 3 9 2 16 -4 16 -6 0 -12 -6 -15 -12 -3 -9 -12 -5 -26 12
-19 21 -22 22 -16 5 4 -13 -6 -7 -30 18 -19 21 -35 42 -35 48 0 5 -6 9 -12 9
-8 0 -14 15 -16 35 -2 34 -1 35 25 29 16 -4 64 -22 108 -41 90 -38 104 -40 83
-15 -8 9 -18 25 -21 34 -6 17 -78 68 -96 68 -6 0 -18 8 -28 18 -12 13 -31 19
-58 18 -34 -1 -41 -5 -43 -24 -2 -13 2 -30 8 -38 7 -7 8 -14 3 -14 -13 0 -33
45 -33 76 0 25 0 25 -29 8 -27 -16 -33 -16 -110 5 -45 11 -92 21 -105 21 -13
0 -40 7 -59 15 -20 8 -49 15 -64 15 -15 0 -48 10 -73 21 -59 28 -208 68 -273
74 -31 3 -66 -1 -87 -9z m986 -237 c3 -5 11 -6 17 -3 7 4 9 4 5 -1 -4 -4 -2
-15 5 -23 10 -13 9 -14 -3 -8 -42 23 -110 72 -114 82 -5 13 80 -32 90 -47z
m-1104 -151 c-7 -7 -12 -8 -12 -2 0 14 12 26 19 19 2 -3 -1 -11 -7 -17z m693
-218 c-3 -5 -11 -10 -16 -10 -6 0 -7 5 -4 10 3 6 11 10 16 10 6 0 7 -4 4 -10z"/>
<path d="M1125 3180 c-3 -6 1 -7 9 -4 18 7 21 14 7 14 -6 0 -13 -4 -16 -10z"/>
<path d="M1135 3130 c-3 -5 -1 -10 4 -10 6 0 11 5 11 10 0 6 -2 10 -4 10 -3 0
-8 -4 -11 -10z"/>
<path d="M2303 3105 c6 -19 16 -35 23 -35 9 0 9 7 -2 30 -22 43 -34 46 -21 5z"/>
<path d="M1120 3019 c0 -5 5 -7 10 -4 6 3 10 8 10 11 0 2 -4 4 -10 4 -5 0 -10
-5 -10 -11z"/>
<path d="M1096 2984 c-9 -24 -2 -26 12 -4 7 11 8 20 3 20 -5 0 -12 -7 -15 -16z"/>
<path d="M1146 2906 c-9 -30 -16 -67 -15 -83 0 -16 6 -2 14 35 8 35 17 72 20
82 4 11 4 20 1 20 -2 0 -12 -24 -20 -54z"/>
<path d="M1076 2935 c-9 -26 -7 -32 5 -12 6 10 9 21 6 23 -2 3 -7 -2 -11 -11z"/>
<path d="M3556 2894 c-21 -19 -62 -48 -90 -64 -28 -16 -61 -37 -71 -47 -11
-10 -37 -33 -58 -50 -39 -34 -38 -45 1 -17 12 8 26 13 31 9 5 -3 12 3 14 12 2
10 4 4 3 -12 -1 -28 -4 -31 -36 -32 -45 -2 -69 -7 -100 -21 -14 -6 -73 -30
-133 -53 -87 -34 -171 -79 -241 -130 -6 -5 5 -39 19 -57 2 -2 301 -32 373 -36
43 -3 27 12 -18 16 -19 2 -35 8 -34 13 0 6 23 24 49 40 47 29 52 30 162 29 79
-1 113 2 112 10 -3 28 2 47 11 41 6 -4 10 -12 9 -18 -3 -26 2 -37 16 -37 21 0
31 30 14 41 -11 6 -11 11 -1 21 17 17 17 268 0 268 -10 0 -10 2 0 9 8 5 12 24
10 54 -2 26 -3 47 -3 47 0 0 -17 -16 -39 -36z m-64 -99 c-4 -24 -32 -36 -32
-15 0 6 5 10 10 10 6 0 10 7 10 15 0 8 4 15 9 15 4 0 6 -11 3 -25z m-35 -45
c3 -10 2 -11 -4 -4 -4 6 -15 14 -23 17 -11 5 -9 6 4 4 11 -1 21 -9 23 -17z
m60 -132 c-3 -8 -6 -5 -6 6 -1 11 2 17 5 13 3 -3 4 -12 1 -19z m53 1 c0 -6 -4
-7 -10 -4 -5 3 -10 11 -10 16 0 6 5 7 10 4 6 -3 10 -11 10 -16z m-90 -19 c0
-5 -5 -10 -11 -10 -5 0 -7 5 -4 10 3 6 8 10 11 10 2 0 4 -4 4 -10z m82 -30 c4
0 8 -5 8 -12 0 -6 -9 -3 -20 7 -11 10 -20 25 -19 34 0 11 4 9 11 -6 6 -13 15
-23 20 -23z m20 18 c-7 -7 -12 -8 -12 -2 0 6 3 14 7 17 3 4 9 5 12 2 2 -3 -1
-11 -7 -17z m-192 -8 c0 -5 -2 -10 -4 -10 -3 0 -8 5 -11 10 -3 6 -1 10 4 10 6
0 11 -4 11 -10z m60 -40 c0 -5 -2 -10 -4 -10 -3 0 -8 5 -11 10 -3 6 -1 10 4
10 6 0 11 -4 11 -10z"/>
<path d="M1761 2885 c-1 -6 -30 -10 -65 -10 -65 0 -101 -15 -75 -30 7 -5 10
-4 6 2 -4 7 5 10 23 9 l29 -1 -35 -31 c-33 -31 -65 -90 -78 -146 -11 -46 9
-31 23 17 28 95 133 140 180 78 l21 -28 -6 26 c-6 29 10 49 20 24 4 -12 10
-13 31 -3 16 7 21 14 14 18 -8 5 -8 9 0 14 7 5 7 12 -1 26 -10 15 -16 16 -31
8 -17 -9 -19 -8 -13 7 5 14 2 16 -13 12 -11 -3 -22 0 -25 7 -2 6 -5 7 -5 1z"/>
<path d="M2474 2853 c10 -13 23 -20 29 -16 7 4 6 8 -3 11 -8 3 -22 10 -30 16
-8 6 -7 1 4 -11z"/>
<path d="M1830 2735 c-7 -14 -11 -28 -7 -31 3 -4 2 -15 -4 -25 -6 -12 -6 -19
0 -19 11 0 21 26 26 70 5 36 2 37 -15 5z"/>
<path d="M1933 2748 c-15 -20 -25 -38 -20 -38 3 0 12 11 21 25 17 26 16 35 -1
13z"/>
<path d="M1510 2704 c-17 -58 -5 -111 50 -229 50 -111 63 -107 15 4 -40 91
-58 177 -49 234 8 51 -1 47 -16 -9z"/>
<path d="M1684 2708 c-51 -24 -59 -116 -14 -149 33 -25 64 -15 90 26 27 44 25
71 -9 106 -32 32 -36 33 -67 17z m3 -74 c8 -21 -13 -42 -28 -27 -13 13 -5 43
11 43 6 0 13 -7 17 -16z m47 -35 c-3 -5 -10 -7 -15 -3 -5 3 -7 10 -3 15 3 5
10 7 15 3 5 -3 7 -10 3 -15z"/>
<path d="M1910 2699 c0 -2 -9 -29 -21 -59 -11 -30 -17 -51 -13 -47 12 12 44
100 39 106 -3 2 -5 2 -5 0z"/>
<path d="M2580 2531 c0 -10 19 -25 25 -20 1 2 -3 10 -11 17 -8 7 -14 8 -14 3z"/>
<path d="M2622 2486 c7 -8 15 -12 17 -11 5 6 -10 25 -20 25 -5 0 -4 -6 3 -14z"/>
<path d="M2352 2463 c-24 -8 -41 -17 -39 -19 2 -3 17 0 32 6 32 12 112 11 138
-2 9 -5 17 -6 17 -3 0 9 -67 35 -87 34 -10 0 -37 -7 -61 -16z"/>
<path d="M1615 2433 c10 -57 15 -73 26 -73 12 0 11 17 -2 26 -6 3 -8 17 -5 29
7 26 -1 55 -16 55 -5 0 -6 -16 -3 -37z"/>
<path d="M2655 2460 c3 -5 11 -10 16 -10 6 0 7 5 4 10 -3 6 -11 10 -16 10 -6
0 -7 -4 -4 -10z"/>
<path d="M1330 2416 c0 -2 9 -6 20 -9 11 -3 20 -1 20 4 0 5 -9 9 -20 9 -11 0
-20 -2 -20 -4z"/>
<path d="M2735 2369 c28 -30 83 -83 123 -118 39 -34 72 -67 72 -73 0 -5 11
-19 24 -29 14 -11 27 -33 31 -49 4 -16 11 -33 17 -36 7 -5 8 -2 3 7 -5 8 -4
11 1 6 5 -5 9 -14 10 -20 0 -7 2 -20 2 -29 2 -12 7 -15 19 -11 12 5 15 2 10
-9 -3 -9 2 -23 13 -33 17 -15 18 -15 16 9 0 14 -4 26 -8 26 -5 0 -8 8 -8 18 0
10 -3 22 -7 26 -5 4 -8 11 -9 14 0 4 -4 14 -7 22 -4 8 -11 33 -16 55 -5 22 -9
32 -10 22 -1 -10 -6 -15 -11 -12 -6 4 -8 11 -5 16 3 5 -2 6 -11 2 -12 -4 -15
-3 -10 6 5 8 3 12 -5 10 -28 -3 -39 1 -39 18 0 9 -3 14 -6 11 -3 -3 -42 31
-88 76 -45 44 -98 92 -116 105 -31 22 -29 18 15 -30z"/>
<path d="M3001 2343 c38 -36 78 -81 89 -100 28 -47 15 -41 -16 8 -20 32 -28
39 -35 28 -7 -11 -9 -10 -9 4 0 20 -22 47 -39 47 -6 0 -15 9 -21 20 -6 11 -24
27 -40 35 -38 19 -40 11 -2 -9 15 -8 21 -15 14 -16 -10 0 -10 -4 2 -16 23 -23
32 -45 31 -82 -1 -30 1 -31 12 -16 12 16 13 15 13 -11 0 -15 3 -25 7 -22 8 9
28 -30 36 -73 4 -19 15 -45 24 -59 10 -15 18 -30 19 -36 0 -5 2 -16 2 -23 1
-7 7 -10 13 -6 8 4 7 9 -2 16 -11 8 -11 9 1 5 8 -2 15 -11 15 -20 0 -9 9 -23
20 -31 20 -15 20 -15 -2 -9 -17 4 -23 1 -23 -11 0 -10 -4 -14 -10 -11 -5 3
-10 2 -10 -4 0 -6 -8 -7 -17 -4 -15 6 -15 5 -3 -8 7 -8 23 -16 34 -17 14 -1
17 1 8 7 -10 6 -9 11 3 21 14 12 18 11 25 0 5 -9 4 -20 -3 -29 -9 -12 -9 -13
1 -7 7 4 12 1 12 -8 0 -9 5 -16 12 -16 6 0 9 -3 5 -6 -3 -3 5 -24 19 -45 13
-21 24 -42 24 -46 0 -5 8 -24 19 -43 10 -19 24 -53 31 -75 7 -22 16 -44 20
-50 7 -9 19 -50 26 -85 2 -8 8 -16 13 -18 6 -2 11 -25 11 -51 0 -37 -7 -56
-31 -89 -37 -51 -34 -64 5 -23 32 34 60 129 51 175 -19 91 -98 402 -116 457
-52 159 -157 321 -253 391 -64 46 -58 32 15 -39z m53 -99 c3 -8 2 -12 -4 -9
-6 3 -10 10 -10 16 0 14 7 11 14 -7z m86 -119 c0 -5 -9 3 -19 18 -12 18 -20
24 -23 16 -3 -9 -6 -8 -11 5 -4 10 -3 15 3 11 6 -3 10 0 10 7 0 7 9 0 20 -17
11 -16 20 -34 20 -40z m35 -85 c3 -5 1 -10 -4 -10 -6 0 -11 5 -11 10 0 6 2 10
4 10 3 0 8 -4 11 -10z m18 -40 c3 -11 1 -18 -4 -14 -5 3 -9 12 -9 20 0 20 7
17 13 -6z"/>
<path d="M1370 2376 c0 -4 58 -36 64 -36 1 0 2 9 3 20 1 16 -4 20 -33 20 -19
0 -34 -2 -34 -4z"/>
<path d="M2408 2322 c3 -10 1 -13 -6 -8 -7 4 -12 1 -12 -9 0 -8 -6 -18 -14
-21 -8 -3 -17 -13 -21 -22 -5 -14 -4 -15 6 -4 7 6 18 12 23 12 6 0 5 -5 -2
-12 -6 -6 -8 -18 -3 -27 5 -9 7 -27 6 -40 -2 -26 18 -74 27 -65 12 11 18 -49
7 -62 -6 -8 -9 -27 -6 -43 3 -16 3 -32 -1 -35 -6 -7 -8 -22 -15 -111 -1 -27
-11 -65 -20 -84 -9 -19 -17 -40 -17 -48 0 -8 -5 -11 -11 -7 -8 4 -9 -1 -4 -16
5 -15 4 -20 -4 -16 -15 10 -14 -7 2 -23 10 -10 9 -11 -3 -7 -14 6 -40 -32 -40
-58 0 -5 -8 -18 -17 -29 -10 -10 -18 -24 -19 -30 -2 -24 -17 -57 -25 -58 -5
-1 -15 -2 -21 -3 -7 0 -13 -8 -14 -16 -4 -67 -4 -66 -15 -47 -12 21 -49 23
-49 2 0 -8 5 -15 12 -15 6 0 8 -3 5 -6 -4 -4 -13 -1 -22 6 -13 11 -15 9 -14
-11 1 -13 -2 -32 -6 -41 -4 -11 -3 -18 5 -18 6 0 8 -5 4 -11 -5 -8 1 -10 19
-5 19 4 27 2 30 -11 4 -17 5 -17 6 0 0 9 6 17 12 17 5 0 7 -5 3 -12 -5 -8 -2
-9 11 -4 10 4 21 2 25 -4 4 -6 14 -8 24 -4 11 4 13 10 7 18 -6 7 -6 17 0 26 8
13 10 13 18 1 7 -11 11 -9 20 8 11 19 9 21 -21 21 -29 1 -26 4 32 26 94 37
130 57 130 71 0 7 3 12 8 12 26 -4 41 2 36 16 -5 11 -2 13 9 9 12 -4 15 -1 12
15 -2 12 0 19 6 16 8 -6 13 9 10 29 -1 5 4 6 12 3 7 -3 14 1 14 9 0 7 -5 11
-11 8 -6 -3 -2 2 9 11 16 13 18 19 7 35 -19 31 -15 43 14 36 17 -5 23 -3 19 4
-3 5 -15 10 -26 10 -10 0 -19 5 -19 11 0 5 -5 7 -11 4 -6 -4 -8 -9 -5 -12 5
-6 -18 -33 -28 -33 -3 0 3 22 13 48 11 26 21 59 24 72 l4 25 8 -23 c6 -17 11
-20 20 -12 17 14 27 -1 14 -20 -13 -22 -11 -30 7 -30 8 0 12 5 9 10 -3 6 -1
10 5 10 6 0 8 5 5 10 -3 6 0 13 8 16 7 2 14 10 15 17 0 7 3 23 7 37 12 48 12
55 3 73 -6 12 -5 17 4 17 9 0 9 3 1 11 -6 6 -9 18 -6 25 3 8 1 14 -5 14 -5 0
-12 7 -15 14 -4 10 -1 13 9 9 7 -3 14 -1 14 5 0 5 -7 12 -15 16 -16 6 -16 59
0 74 5 4 5 1 0 -7 -5 -9 -4 -12 3 -7 19 12 14 25 -34 89 -27 35 -47 72 -48 90
-2 28 -42 71 -57 61 -4 -2 -9 0 -11 5 -1 6 -19 12 -40 14 -29 3 -35 1 -30 -11z
m202 -207 c0 -12 -19 -12 -23 0 -4 9 -1 12 9 8 7 -3 14 -7 14 -8z m-193 -267
c-3 -8 -6 -5 -6 6 -1 11 2 17 5 13 3 -3 4 -12 1 -19z m-92 -236 c-15 -16 -16
-15 -4 12 7 15 15 23 17 16 3 -7 -3 -19 -13 -28z m-23 -54 c-8 -8 -9 -4 -5 13
4 13 8 18 11 10 2 -7 -1 -18 -6 -23z"/>
<path d="M2038 2318 c-9 -5 -3 -8 15 -8 31 0 77 -39 77 -65 0 -9 -16 -31 -35
-49 -19 -19 -35 -42 -35 -53 0 -32 29 -121 45 -137 36 -36 -2 -134 -53 -136
-22 0 -80 -44 -98 -74 -12 -21 -15 -42 -11 -82 4 -39 2 -56 -9 -65 -15 -13
-19 -29 -6 -29 5 0 18 9 29 19 12 11 23 17 26 14 4 -3 9 8 12 23 8 38 21 60
34 57 6 -2 8 3 5 10 -3 8 5 19 18 26 13 6 15 9 6 7 -11 -4 -18 0 -18 9 0 8 7
15 16 15 8 0 12 4 9 10 -4 6 4 6 22 -1 22 -8 25 -8 16 2 -9 9 -5 17 14 35 14
13 28 38 32 56 4 17 13 34 20 36 9 3 11 0 6 -9 -4 -8 3 -2 16 12 13 14 30 24
38 21 7 -2 17 1 21 7 9 16 0 62 -11 55 -5 -3 -6 2 -3 10 4 11 0 16 -10 16 -9
0 -16 5 -16 10 0 6 5 10 11 10 5 0 7 5 4 10 -3 6 -2 10 4 10 5 0 12 -6 14 -12
3 -7 6 -8 6 -2 1 5 -9 21 -20 33 -17 18 -19 25 -9 31 8 5 9 13 4 21 -6 11 -5
12 7 2 11 -9 14 -7 16 14 0 14 7 29 15 34 8 5 8 9 2 9 -6 0 -19 -10 -27 -22
-15 -21 -16 -22 -14 -3 1 11 6 25 10 32 8 13 -20 46 -33 38 -4 -3 -16 7 -25
21 -14 21 -19 24 -26 13 -6 -10 -9 -10 -9 -2 0 7 -7 10 -15 7 -9 -4 -15 0 -15
8 0 16 -50 20 -72 6z m176 -223 c-4 -8 -8 -15 -10 -15 -2 0 -4 7 -4 15 0 8 4
15 10 15 5 0 7 -7 4 -15z m-178 -267 c-3 -21 -16 -38 -29 -38 -7 0 -3 7 7 15
11 8 16 15 12 15 -4 0 -4 5 -1 10 8 14 14 13 11 -2z"/>
<path d="M2300 2310 c0 -5 7 -7 15 -4 8 4 15 8 15 10 0 2 -7 4 -15 4 -8 0 -15
-4 -15 -10z"/>
<path d="M2950 2311 c0 -6 4 -13 10 -16 6 -3 7 1 4 9 -7 18 -14 21 -14 7z"/>
<path d="M1915 2261 c-3 -10 -18 -22 -33 -26 l-27 -7 25 -13 c14 -8 36 -14 50
-13 15 0 19 2 8 5 -18 5 -21 39 -5 61 6 8 6 12 -1 12 -6 0 -13 -9 -17 -19z"/>
<path d="M2311 2264 c0 -11 3 -14 6 -6 3 7 2 16 -1 19 -3 4 -6 -2 -5 -13z"/>
<path d="M2560 2250 c0 -11 4 -20 9 -20 5 0 7 9 4 20 -3 11 -7 20 -9 20 -2 0
-4 -9 -4 -20z"/>
<path d="M2280 2254 c0 -17 17 -36 24 -26 3 5 -1 15 -9 22 -8 7 -15 9 -15 4z"/>
<path d="M2293 2203 c-7 -2 -13 -12 -13 -21 0 -13 2 -13 13 3 9 11 19 15 27
10 9 -5 11 -4 6 3 -8 13 -13 14 -33 5z"/>
<path d="M2338 2173 c7 -3 16 -2 19 1 4 3 -2 6 -13 5 -11 0 -14 -3 -6 -6z"/>
<path d="M1785 2160 c-3 -5 -1 -10 4 -10 6 0 11 5 11 10 0 6 -2 10 -4 10 -3 0
-8 -4 -11 -10z"/>
<path d="M2330 2151 c0 -6 4 -13 10 -16 6 -3 7 1 4 9 -7 18 -14 21 -14 7z"/>
<path d="M2243 2125 c0 -8 4 -12 9 -9 5 3 6 10 3 15 -9 13 -12 11 -12 -6z"/>
<path d="M2317 2113 c-4 -3 -7 -13 -7 -22 1 -13 3 -13 11 2 11 19 8 33 -4 20z"/>
<path d="M2000 2096 c0 -9 5 -16 10 -16 6 0 10 4 10 9 0 6 -4 13 -10 16 -5 3
-10 -1 -10 -9z"/>
<path d="M2386 2094 c-9 -8 -16 -12 -16 -7 0 4 -4 1 -10 -7 -6 -9 -5 -19 2
-28 9 -10 9 -15 0 -21 -7 -4 -8 -12 -2 -21 6 -8 10 -13 11 -10 0 3 2 14 4 25
2 11 14 28 26 37 20 17 18 23 -5 19 -5 -1 -4 5 4 13 16 21 6 21 -14 0z"/>
<path d="M2327 2074 c-11 -14 -16 -28 -12 -32 8 -8 35 26 35 45 0 18 -2 16
-23 -13z"/>
<path d="M2256 2061 c-3 -5 1 -14 9 -21 11 -9 14 -8 12 9 -1 22 -12 28 -21 12z"/>
<path d="M2630 2030 c0 -5 4 -10 10 -10 5 0 12 -11 16 -25 3 -14 10 -25 15
-25 5 0 1 16 -8 35 -16 33 -33 46 -33 25z"/>
<path d="M1382 2003 c-23 -8 -39 -19 -36 -25 4 -5 -6 -2 -20 7 -27 18 -28 17
-151 -46 -69 -34 -125 -69 -125 -75 0 -19 -43 -83 -57 -84 -10 0 -24 -15 -71
-75 -19 -24 -71 -137 -56 -122 14 13 34 -65 22 -86 -7 -14 -7 -17 1 -13 6 4
11 4 11 -1 0 -4 19 -17 43 -28 23 -11 48 -26 56 -33 7 -7 20 -11 27 -8 9 3 14
-2 14 -13 0 -19 75 -65 91 -56 4 3 9 -2 13 -10 3 -8 10 -15 16 -15 6 0 8 5 4
12 -4 7 -3 8 4 4 6 -4 9 -13 5 -21 -3 -10 2 -15 16 -15 13 0 21 6 21 16 0 20
-57 72 -87 80 -22 6 -53 58 -56 94 -1 10 -5 16 -9 14 -16 -10 -20 27 -5 50 9
13 19 41 23 62 11 62 63 146 145 233 42 44 74 83 71 86 -3 3 0 5 7 5 8 0 11 7
7 15 -4 12 0 14 19 9 17 -4 31 1 47 15 12 12 27 20 33 17 6 -2 19 2 30 10 25
18 4 17 -53 -3z"/>
<path d="M3093 1985 c0 -8 4 -12 9 -9 4 3 8 9 8 15 0 5 -4 9 -8 9 -5 0 -9 -7
-9 -15z"/>
<path d="M3116 1885 c4 -8 8 -15 10 -15 2 0 4 7 4 15 0 8 -4 15 -10 15 -5 0
-7 -7 -4 -15z"/>
<path d="M1344 1823 c-117 -66 -154 -106 -168 -183 -6 -29 -2 -25 23 26 17 34
46 73 68 90 54 43 171 106 183 99 5 -3 18 -2 27 3 13 8 9 10 -19 10 -24 0 -62
-15 -114 -45z"/>
<path d="M1422 1828 c-19 -19 -14 -30 8 -18 11 6 20 15 20 20 0 14 -14 12 -28
-2z"/>
<path d="M864 1791 c-62 -95 -62 -219 1 -271 12 -10 11 -2 -6 30 -12 23 -24
66 -27 94 -3 44 1 61 31 119 40 75 40 87 1 28z"/>
<path d="M3120 1796 c0 -8 4 -17 9 -20 5 -4 7 3 4 14 -6 23 -13 26 -13 6z"/>
<path d="M760 1771 c-6 -16 -10 -38 -7 -48 4 -14 5 -13 6 5 0 13 6 32 12 44 6
11 9 22 6 24 -2 3 -10 -9 -17 -25z"/>
<path d="M3075 1790 c-3 -5 -1 -10 4 -10 6 0 11 5 11 10 0 6 -2 10 -4 10 -3 0
-8 -4 -11 -10z"/>
<path d="M3096 1775 c-3 -8 -1 -15 4 -15 6 0 10 7 10 15 0 8 -2 15 -4 15 -2 0
-6 -7 -10 -15z"/>
<path d="M1265 1708 c-47 -92 -52 -165 -17 -233 9 -16 16 -36 16 -44 1 -8 7
-16 15 -19 10 -3 11 0 5 9 -6 12 -5 12 10 0 9 -8 14 -21 11 -29 -4 -12 -3 -13
10 -2 12 10 18 10 29 1 18 -15 50 -1 66 29 16 29 12 34 -14 17 -21 -14 -26
-14 -36 -2 -10 12 -8 15 11 16 17 1 11 5 -18 12 -23 7 -51 21 -62 31 -45 41
-51 148 -11 214 11 18 16 32 11 32 -5 0 -17 -15 -26 -32z"/>
<path d="M3067 1728 c-2 -7 2 -27 10 -45 8 -21 9 -34 3 -38 -6 -4 -8 -10 -5
-15 3 -5 1 -11 -4 -14 -5 -3 -7 -15 -4 -27 4 -14 12 -19 24 -16 11 3 22 1 25
-4 3 -5 0 -9 -6 -9 -6 0 -8 -4 -5 -10 3 -6 -1 -7 -9 -4 -9 3 -16 1 -16 -5 0
-6 8 -11 18 -11 14 0 15 -2 2 -9 -8 -6 -17 -8 -21 -5 -4 2 -9 -3 -13 -11 -6
-16 11 -20 30 -7 21 13 38 57 37 92 -1 19 2 39 6 45 4 5 4 26 0 45 -3 19 -7
27 -8 16 -1 -16 -3 -17 -18 -5 -15 11 -16 11 -5 -1 14 -17 16 -70 2 -70 -5 0
-10 12 -10 26 0 14 -5 34 -10 45 -7 12 -7 19 -1 19 6 0 8 7 5 15 -7 18 -21 20
-27 3z m37 -139 c-3 -5 -10 -7 -15 -3 -5 3 -7 10 -3 15 3 5 10 7 15 3 5 -3 7
-10 3 -15z"/>
<path d="M1351 1693 c-54 -45 -38 -145 25 -151 42 -4 71 23 78 74 5 35 2 46
-19 68 -28 30 -54 33 -84 9z m29 -54 c0 -25 -33 -22 -38 4 -2 12 3 17 17 17
15 0 21 -6 21 -21z m50 -19 c0 -5 -4 -10 -10 -10 -5 0 -10 5 -10 10 0 6 5 10
10 10 6 0 10 -4 10 -10z"/>
<path d="M743 1665 c0 -22 2 -30 4 -17 2 12 2 30 0 40 -3 9 -5 -1 -4 -23z"/>
<path d="M2661 1684 c0 -11 3 -14 6 -6 3 7 2 16 -1 19 -3 4 -6 -2 -5 -13z"/>
<path d="M1050 1529 c0 -5 5 -7 10 -4 6 3 10 8 10 11 0 2 -4 4 -10 4 -5 0 -10
-5 -10 -11z"/>
<path d="M1870 1526 c0 -9 5 -16 10 -16 6 0 10 -6 10 -12 1 -30 170 -238 193
-238 5 0 -2 9 -17 21 -15 11 -45 49 -68 82 -79 117 -128 179 -128 163z"/>
<path d="M3510 1516 c-94 -27 -100 -32 -100 -76 0 -23 5 -61 11 -85 8 -30 8
-49 0 -63 -8 -16 -3 -29 30 -73 46 -62 54 -68 62 -40 4 17 12 20 46 17 l41 -3
0 168 c0 192 6 182 -90 155z m-55 -46 c3 -5 -1 -10 -10 -10 -9 0 -13 5 -10 10
3 6 8 10 10 10 2 0 7 -4 10 -10z m135 -91 c0 -10 -4 -19 -10 -19 -5 0 -10 12
-10 26 0 14 4 23 10 19 6 -3 10 -15 10 -26z m-140 6 c0 -8 -4 -15 -10 -15 -5
0 -10 7 -10 15 0 8 5 15 10 15 6 0 10 -7 10 -15z"/>
<path d="M1210 1486 c0 -8 4 -17 9 -20 5 -4 7 3 4 14 -6 23 -13 26 -13 6z"/>
<path d="M1511 1474 c0 -11 3 -14 6 -6 3 7 2 16 -1 19 -3 4 -6 -2 -5 -13z"/>
<path d="M3090 1481 c0 -7 -4 -9 -10 -6 -5 3 -10 1 -10 -6 0 -8 -4 -8 -15 1
-12 10 -15 10 -15 -3 0 -9 5 -19 11 -23 13 -8 56 32 46 42 -4 4 -7 2 -7 -5z"/>
<path d="M1420 1470 c0 -5 5 -10 10 -10 6 0 10 5 10 10 0 6 -4 10 -10 10 -5 0
-10 -4 -10 -10z"/>
<path d="M3083 1448 c-4 -7 -12 -22 -18 -32 -14 -27 -38 -34 -33 -10 2 11 10
18 18 16 11 -3 11 0 0 12 -14 18 -35 22 -25 5 4 -6 -1 -17 -11 -24 -13 -10
-15 -14 -5 -15 11 0 11 -3 1 -15 -7 -9 -10 -19 -6 -22 4 -4 12 -1 17 7 9 12
10 12 5 -2 -3 -10 -3 -18 0 -18 9 0 54 53 54 63 0 6 7 19 17 29 9 10 11 18 5
18 -6 0 -14 -6 -19 -12z"/>
<path d="M2070 1405 c-7 -9 -8 -15 -2 -15 5 0 12 7 16 15 3 8 4 15 2 15 -2 0
-9 -7 -16 -15z"/>
<path d="M982 1401 c4 -13 18 -16 19 -4 0 4 -5 9 -11 12 -7 2 -11 -2 -8 -8z"/>
<path d="M2073 1354 c0 -16 13 -19 21 -5 3 5 0 11 -7 14 -8 3 -14 -1 -14 -9z"/>
<path d="M2963 1336 c-17 -17 -20 -25 -11 -40 8 -14 12 -16 19 -5 4 7 4 18 -2
25 -7 8 -2 10 18 7 20 -3 24 -2 14 5 -11 8 -11 10 0 14 10 3 10 6 -2 10 -7 3
-24 -4 -36 -16z"/>
<path d="M2890 1240 c-13 -8 -12 -10 3 -10 9 0 17 5 17 10 0 12 -1 12 -20 0z"/>
<path d="M2846 1224 c-11 -7 -17 -16 -15 -19 3 -3 14 2 25 9 10 8 17 17 14 19
-3 3 -14 -1 -24 -9z"/>
<path d="M2790 1200 c0 -5 7 -7 15 -4 8 4 15 8 15 10 0 2 -7 4 -15 4 -8 0 -15
-4 -15 -10z"/>
<path d="M2755 1190 c-3 -5 -2 -10 4 -10 5 0 13 5 16 10 3 6 2 10 -4 10 -5 0
-13 -4 -16 -10z"/>
<path d="M2415 1019 c-4 -6 -4 -13 -1 -16 3 -4 6 -1 6 6 0 7 5 9 12 5 7 -4 8
-3 4 4 -9 15 -13 15 -21 1z"/>
<path d="M1093 979 c-40 -11 -50 -26 -31 -45 17 -18 49 -8 41 12 -5 13 5 17
50 17 21 0 22 13 1 21 -18 7 -19 7 -61 -5z"/>
<path d="M1138 928 c5 -5 16 -8 23 -6 8 3 3 7 -10 11 -17 4 -21 3 -13 -5z"/>
<path d="M1234 929 c-3 -5 6 -9 20 -9 31 0 34 6 6 13 -11 3 -23 1 -26 -4z"/>
<path d="M2345 929 c-5 -7 29 -131 44 -164 5 -11 21 -56 36 -100 16 -44 32
-85 36 -91 5 -6 6 -14 2 -18 -4 -4 1 -4 11 0 16 6 17 4 8 -13 -9 -17 -7 -24
12 -42 12 -11 30 -21 40 -21 9 0 15 -4 12 -9 -3 -5 -16 -7 -29 -3 -19 5 -20 4
-9 -11 8 -9 11 -21 7 -27 -3 -5 1 -10 10 -10 9 0 13 -5 10 -10 -4 -6 -1 -17 5
-25 16 -19 0 -47 -20 -35 -13 8 -12 10 3 10 26 0 10 20 -16 20 -21 1 -21 2 -4
14 15 12 15 15 2 26 -8 7 -15 28 -15 46 0 19 -5 34 -11 34 -10 0 -10 -12 7
-140 7 -49 14 -71 22 -66 4 2 8 -6 9 -17 2 -29 10 -72 13 -72 5 0 19 -105 20
-157 1 -32 5 -37 28 -41 38 -7 300 -7 285 -1 -7 3 -13 9 -13 14 0 12 30 6 38
-7 9 -14 184 -12 194 2 5 6 8 5 8 -2 0 -18 29 -16 48 4 16 16 17 16 20 0 2 -9
8 -17 13 -17 12 0 11 24 -2 37 -13 13 35 73 58 73 13 0 13 -3 3 -15 -7 -8 -18
-15 -25 -15 -12 0 -25 -21 -25 -40 0 -4 7 -11 16 -14 12 -4 15 -2 10 9 -3 9 0
15 8 15 24 0 25 -12 3 -31 l-22 -18 23 -1 c12 0 22 5 22 10 0 6 7 10 15 10 8
0 15 -4 15 -10 0 -5 7 -10 15 -10 8 0 15 5 15 10 0 6 7 10 16 10 8 0 12 4 9
10 -3 5 -2 10 4 10 16 0 25 -22 11 -30 -6 -4 7 -7 30 -7 31 0 38 2 26 9 -9 5
-16 14 -16 19 0 6 16 1 35 -11 19 -12 35 -17 35 -11 0 6 5 11 11 11 5 0 7 -4
4 -10 -4 -6 6 -10 22 -10 27 1 27 1 8 16 -11 8 -30 12 -43 9 -22 -5 -22 -5 -4
12 36 35 93 58 77 32 -4 -6 1 -17 11 -24 18 -14 18 -14 1 -15 -10 0 -17 -6
-15 -12 5 -14 39 -24 37 -11 -4 21 3 25 19 10 18 -16 19 -16 19 13 0 25 -4 29
-19 24 -10 -3 -18 -1 -18 5 0 6 9 11 20 11 11 0 20 5 20 11 0 7 -10 9 -26 5
-19 -5 -30 -2 -41 11 -10 13 -16 15 -19 6 -7 -15 -34 -17 -34 -3 0 6 5 10 11
10 5 0 7 5 3 11 -5 8 -9 8 -14 -1 -5 -8 -11 -7 -23 4 -16 16 -37 21 -37 10 0
-4 8 -13 18 -20 15 -12 15 -13 1 -14 -9 0 -22 -7 -29 -15 -14 -17 -40 -20 -40
-4 0 6 9 13 20 16 11 3 20 9 20 14 0 5 -11 7 -25 3 -16 -4 -25 -2 -25 6 0 7 6
10 14 7 8 -3 17 1 20 9 9 24 8 25 -19 18 -15 -4 -25 -2 -25 5 0 5 -9 15 -20
21 -25 14 -25 9 0 -20 20 -23 20 -24 2 -34 -10 -6 -34 -23 -54 -38 -36 -29
-58 -35 -58 -18 0 6 7 10 15 10 8 0 15 4 15 8 0 5 12 14 27 21 l28 13 -38 33
c-20 18 -37 37 -37 43 0 10 -44 42 -57 42 -4 0 -3 -4 3 -8 6 -4 14 -17 18 -29
6 -18 3 -23 -9 -23 -11 0 -15 -5 -11 -15 8 -21 -17 -19 -37 3 -21 23 -22 38
-3 45 10 4 12 0 9 -14 -4 -13 0 -19 11 -19 9 0 16 6 16 14 0 19 -27 39 -41 30
-8 -5 -11 -2 -7 7 3 8 -4 23 -15 34 -11 11 -17 15 -14 9 4 -7 -2 -12 -17 -12
-18 0 -23 5 -19 16 5 12 1 14 -22 8 -26 -7 -27 -6 -14 10 13 16 12 17 -8 12
-13 -4 -26 -2 -29 3 -8 14 -24 11 -24 -5 0 -8 -14 -19 -31 -25 -40 -14 -40
-14 -32 5 3 8 11 13 19 10 15 -6 50 43 37 53 -4 3 -20 17 -34 29 -23 20 -27
21 -39 7 -11 -13 -10 -15 8 -13 11 2 20 -1 19 -7 -1 -5 -13 -10 -26 -10 -14
-1 -26 -6 -28 -12 -5 -13 55 -12 76 1 19 12 22 1 5 -20 -11 -14 -17 -16 -21
-6 -7 18 -33 -4 -33 -29 0 -10 -4 -20 -8 -23 -5 -3 -6 9 -4 26 4 28 3 30 -19
23 -13 -4 -28 -11 -33 -16 -5 -4 -17 -4 -28 2 -10 5 -24 7 -31 3 -6 -4 -3 3 8
15 15 18 21 20 23 9 5 -25 52 -10 52 16 0 12 10 33 22 46 17 18 18 22 5 17 -9
-4 -24 -10 -32 -13 -21 -9 -19 13 3 25 13 8 14 10 2 11 -22 0 -43 -16 -36 -28
3 -6 -9 -12 -29 -14 -19 -2 -35 0 -35 4 0 4 5 9 10 9 6 1 13 2 18 3 4 0 17 11
30 24 25 25 8 31 -20 5 -10 -9 -18 -11 -18 -5 0 7 -7 9 -17 5 -13 -5 -15 -2
-10 11 4 10 7 20 7 22 0 2 5 4 11 4 5 0 8 -4 4 -9 -3 -5 -1 -12 4 -16 6 -3 14
2 20 12 7 14 3 25 -18 48 -33 36 -71 60 -71 45 0 -6 -17 -9 -40 -8 -22 2 -40
6 -40 11 0 7 17 11 34 8 5 -1 15 0 23 4 12 4 10 14 -13 53 -15 26 -37 59 -49
74 -12 14 -31 57 -41 95 -12 45 -30 82 -53 111 l-36 43 -63 -3 c-35 -1 -65 -5
-67 -9z m125 -173 c0 -3 -4 -8 -10 -11 -5 -3 -10 -1 -10 4 0 6 5 11 10 11 6 0
10 -2 10 -4z m25 -16 c-3 -5 -12 -10 -18 -10 -7 0 -6 4 3 10 19 12 23 12 15 0z
m60 -50 c-3 -5 -11 -10 -16 -10 -6 0 -7 5 -4 10 3 6 11 10 16 10 6 0 7 -4 4
-10z m-80 -10 c-3 -5 -11 -10 -16 -10 -6 0 -7 5 -4 10 3 6 11 10 16 10 6 0 7
-4 4 -10z m28 -5 c-3 -9 -8 -14 -10 -11 -3 3 -2 9 2 15 9 16 15 13 8 -4z m59
-22 c-6 -2 -10 -9 -6 -14 3 -5 0 -9 -5 -9 -6 0 -11 7 -11 15 0 8 8 15 18 14
10 0 12 -3 4 -6z m-75 -29 c-3 -3 -12 -4 -19 -1 -8 3 -5 6 6 6 11 1 17 -2 13
-5z m142 -10 c11 -11 -10 -15 -23 -5 -8 7 -20 10 -26 6 -5 -3 -10 -1 -10 5 0
11 47 6 59 -6z m-109 -14 c0 -5 -5 -10 -11 -10 -5 0 -7 5 -4 10 3 6 8 10 11
10 2 0 4 -4 4 -10z m84 -9 c3 -5 -8 -11 -24 -13 -35 -5 -41 8 -7 15 12 2 23 5
24 6 1 0 4 -3 7 -8z m61 -11 c3 -5 -1 -10 -9 -10 -9 0 -16 5 -16 10 0 6 4 10
9 10 6 0 13 -4 16 -10z m-73 -32 c-7 -7 -12 -8 -12 -2 0 14 12 26 19 19 2 -3
-1 -11 -7 -17z m-27 2 c-3 -5 -16 -10 -28 -9 -21 0 -21 1 -2 9 28 12 37 12 30
0z m137 -44 c-10 -11 -22 -30 -26 -40 -3 -10 -9 -16 -12 -13 -9 9 38 87 48 81
5 -4 1 -16 -10 -28z m-137 14 c3 -5 1 -10 -4 -10 -6 0 -11 5 -11 10 0 6 2 10
4 10 3 0 8 -4 11 -10z m55 -9 c0 -6 -4 -13 -10 -16 -5 -3 -10 1 -10 9 0 9 5
16 10 16 6 0 10 -4 10 -9z m37 -16 c-10 -21 -13 -22 -19 -7 -11 27 -9 32 11
32 17 0 18 -3 8 -25z m70 1 c-16 -13 -30 -73 -20 -89 3 -4 11 -3 18 3 11 9 12
7 9 -7 -4 -13 -15 -18 -40 -18 -28 0 -31 2 -19 11 9 7 13 18 9 28 -3 9 -1 16
6 16 6 0 8 5 5 10 -8 14 21 60 38 60 7 -1 5 -6 -6 -14z m-145 -49 c-7 -8 -9
-17 -5 -20 3 -4 1 -7 -6 -7 -8 0 -11 6 -7 16 3 9 6 23 6 32 0 12 3 13 12 4 8
-8 8 -15 0 -25z m38 23 c0 -5 -5 -10 -11 -10 -5 0 -7 5 -4 10 3 6 8 10 11 10
2 0 4 -4 4 -10z m0 -40 c0 -5 -4 -10 -10 -10 -5 0 -10 5 -10 10 0 6 5 10 10
10 6 0 10 -4 10 -10z m40 -10 c-24 -15 -37 -11 -16 5 11 8 22 12 25 9 3 -3 -1
-9 -9 -14z m-75 -20 c17 -7 14 -9 -13 -9 -20 -1 -31 3 -27 9 7 12 13 12 40 0z
m245 -30 c0 -3 -5 -12 -10 -20 -7 -12 -10 -12 -10 -1 0 7 -6 11 -15 7 -14 -5
-21 5 -10 15 6 7 45 6 45 -1z m-150 -10 c0 -5 -4 -10 -10 -10 -5 0 -10 5 -10
10 0 6 5 10 10 10 6 0 10 -4 10 -10z m80 1 c0 -5 -8 -11 -17 -15 -10 -3 -25
-9 -33 -12 -8 -4 -4 3 10 14 27 23 40 27 40 13z m-195 -21 c3 -5 1 -10 -4 -10
-6 0 -11 5 -11 10 0 6 2 10 4 10 3 0 8 -4 11 -10z m-31 -17 c8 -8 13 -10 43
-12 12 -1 14 -4 7 -11 -12 -12 -57 1 -69 19 -7 12 8 15 19 4z m196 -12 c0 -5
-10 -11 -22 -14 -22 -6 -22 -6 -4 8 23 17 26 18 26 6z m130 -18 c-1 -18 -18
-35 -24 -24 -4 6 -4 16 -1 21 7 12 25 13 25 3z m-180 -12 c0 -5 -9 -7 -20 -4
-11 3 -20 7 -20 9 0 2 9 4 20 4 11 0 20 -4 20 -9z m100 -8 c0 5 5 5 11 1 8 -4
7 -9 -2 -14 -7 -5 -20 -3 -30 3 -13 8 -15 13 -6 19 6 4 15 2 19 -5 4 -7 8 -8
8 -4z m-60 3 c0 -3 -4 -8 -10 -11 -5 -3 -10 -1 -10 4 0 6 5 11 10 11 6 0 10
-2 10 -4z m261 -29 c-8 -8 -11 -7 -11 4 0 20 13 34 18 19 3 -7 -1 -17 -7 -23z
m-21 15 c0 -13 -12 -22 -22 -16 -10 6 -1 24 13 24 5 0 9 -4 9 -8z m60 -2 c0
-5 -5 -10 -11 -10 -5 0 -7 5 -4 10 3 6 8 10 11 10 2 0 4 -4 4 -10z m-108 -22
c-6 -6 -15 -8 -19 -4 -4 4 -1 11 7 16 19 12 27 3 12 -12z m-232 2 c0 -5 -2
-10 -4 -10 -3 0 -8 5 -11 10 -3 6 -1 10 4 10 6 0 11 -4 11 -10z m80 -1 c0 -5
4 -8 8 -5 4 2 14 1 22 -5 13 -7 12 -9 -2 -9 -23 0 -48 11 -48 21 0 5 5 9 10 9
6 0 10 -5 10 -11z m328 -2 c11 5 13 3 6 -8 -4 -8 -9 -18 -10 -24 0 -5 -2 -16
-2 -23 -1 -7 -6 -11 -11 -8 -4 3 -6 18 -3 32 4 22 2 26 -12 21 -9 -4 -16 -3
-16 2 0 14 14 21 23 12 5 -5 16 -7 25 -4z m-216 -19 c-6 -6 -15 -8 -19 -4 -4
4 -1 11 7 16 19 12 27 3 12 -12z m144 -4 c-11 -7 -22 -11 -25 -8 -3 3 3 12 13
20 11 7 22 11 25 8 3 -3 -3 -12 -13 -20z m-346 -4 c0 -5 -2 -10 -4 -10 -3 0
-8 5 -11 10 -3 6 -1 10 4 10 6 0 11 -4 11 -10z m246 -17 c-10 -10 -19 5 -10
18 6 11 8 11 12 0 2 -7 1 -15 -2 -18z m30 -10 c-11 -11 -19 6 -11 24 8 17 8
17 12 0 3 -10 2 -21 -1 -24z m34 28 c0 -6 -4 -13 -10 -16 -5 -3 -10 1 -10 9 0
9 5 16 10 16 6 0 10 -4 10 -9z m-410 -11 c0 -5 -2 -10 -4 -10 -3 0 -8 5 -11
10 -3 6 -1 10 4 10 6 0 11 -4 11 -10z m270 0 c0 -5 -5 -10 -11 -10 -5 0 -7 5
-4 10 3 6 8 10 11 10 2 0 4 -4 4 -10z m-200 -10 c0 -5 -7 -10 -15 -10 -8 0
-15 5 -15 10 0 6 7 10 15 10 8 0 15 -4 15 -10z m377 -22 c-3 -7 -5 -2 -5 12 0
14 2 19 5 13 2 -7 2 -19 0 -25z m24 -11 c-8 -8 -11 -5 -11 9 0 27 14 41 18 19
2 -9 -1 -22 -7 -28z m-287 4 c16 -18 12 -56 -5 -45 -5 3 -7 10 -3 15 3 6 -2
19 -12 30 -9 10 -13 19 -7 19 5 0 17 -8 27 -19z m235 -2 c-22 -14 -33 -10 -19
6 7 8 17 12 22 9 6 -4 5 -10 -3 -15z m-49 1 c8 13 10 13 10 -1 0 -9 -7 -19
-15 -23 -8 -3 -15 -1 -15 4 0 6 -8 10 -17 10 -15 0 -16 2 -3 10 9 6 17 5 22
-3 6 -9 10 -8 18 3z m301 -7 c32 -19 38 -33 14 -33 -8 0 -15 6 -15 13 0 7 -12
18 -27 24 -16 6 -22 11 -15 12 8 1 27 -7 43 -16z m-151 -8 c0 -8 -7 -15 -15
-15 -26 0 -18 20 13 29 1 1 2 -6 2 -14z m-40 -15 c0 -5 -2 -10 -4 -10 -3 0 -8
5 -11 10 -3 6 -1 10 4 10 6 0 11 -4 11 -10z m100 0 c0 -5 -2 -10 -4 -10 -3 0
-8 5 -11 10 -3 6 -1 10 4 10 6 0 11 -4 11 -10z m60 0 c0 -5 -6 -10 -14 -10 -8
0 -18 -9 -21 -20 -3 -11 -11 -20 -16 -20 -14 0 -11 18 9 39 19 21 42 27 42 11z
m-626 -9 c3 -5 -1 -11 -9 -14 -9 -4 -12 -1 -8 9 6 16 10 17 17 5z m36 -1 c0
-5 -5 -10 -11 -10 -5 0 -7 5 -4 10 3 6 8 10 11 10 2 0 4 -4 4 -10z m380 0 c0
-5 -10 -10 -22 -9 -22 0 -22 1 -3 9 11 5 21 9 23 9 1 1 2 -3 2 -9z m130 -52
c0 -58 -15 -45 -18 15 -2 37 1 48 8 37 5 -8 10 -32 10 -52z m-38 20 c-9 -9
-12 -7 -12 12 0 19 3 21 12 12 9 -9 9 -15 0 -24z m-292 13 c0 -6 -9 -9 -19 -8
-11 0 -17 5 -15 9 7 11 34 10 34 -1z m550 -11 c0 -19 -20 -27 -33 -13 -8 7 11
33 24 33 5 0 9 -9 9 -20z m-280 0 c0 -5 -5 -10 -11 -10 -5 0 -7 5 -4 10 3 6 8
10 11 10 2 0 4 -4 4 -10z m-460 -8 c0 -4 -10 -9 -22 -9 -18 -2 -20 0 -8 7 18
12 30 13 30 2z m370 -2 c0 -5 -15 -9 -32 -9 l-33 1 30 8 c17 4 31 8 33 9 1 0
2 -3 2 -9z m468 -15 c-28 -26 -48 -32 -48 -15 0 6 5 10 11 10 6 0 17 7 25 15
9 8 21 15 27 15 7 0 0 -11 -15 -25z m-441 -7 c-3 -8 -6 -5 -6 6 -1 11 2 17 5
13 3 -3 4 -12 1 -19z m309 10 c4 -6 2 -14 -4 -16 -7 -2 -12 -10 -12 -18 0 -18
-18 -18 -36 1 -14 13 -14 15 1 15 8 0 18 7 21 15 7 18 20 19 30 3z m-591 -8
c3 -5 1 -10 -4 -10 -6 0 -11 5 -11 10 0 6 2 10 4 10 3 0 8 -4 11 -10z m640
-10 c3 -5 1 -10 -4 -10 -6 0 -11 5 -11 10 0 6 2 10 4 10 3 0 8 -4 11 -10z
m-735 -20 c-8 -5 -19 -10 -25 -10 -5 0 -3 5 5 10 8 5 20 10 25 10 6 0 3 -5 -5
-10z"/>
<path d="M3257 194 c8 -20 51 -64 63 -64 18 0 10 22 -10 27 -11 3 -20 10 -20
15 0 10 -25 38 -34 38 -3 0 -3 -7 1 -16z"/>
<path d="M3555 100 c3 -5 8 -10 11 -10 2 0 4 5 4 10 0 6 -5 10 -11 10 -5 0 -7
-4 -4 -10z"/>
<path d="M3490 46 c0 -9 7 -16 16 -16 17 0 14 22 -4 28 -7 2 -12 -3 -12 -12z"/>
</g>
</svg>
